<svg width="24" height="24" viewBox="0 0 24 24" fill="none" xmlns="http://www.w3.org/2000/svg">
<g clip-path="url(#clip0_1344_5250)">
<path d="M20.0015 18.9826V19.9803H2V18.9826L4.00076 16.9818V11.022C3.99357 9.51039 4.477 8.03725 5.37845 6.82383C6.2799 5.61042 7.5507 4.72222 9 4.29265V4.00076C9 3.73802 9.05175 3.47784 9.1523 3.2351C9.25285 2.99236 9.40022 2.7718 9.58601 2.58601C9.7718 2.40022 9.99236 2.25285 10.2351 2.1523C10.4778 2.05175 10.738 2 11.0008 2C11.2635 2 11.5237 2.05175 11.7664 2.1523C12.0092 2.25285 12.2297 2.40022 12.4155 2.58601C12.6013 2.7718 12.7487 2.99236 12.8492 3.2351C12.9498 3.47784 13.0015 3.73802 13.0015 4.00076V4.29265C14.4508 4.72222 15.7216 5.61042 16.6231 6.82383C17.5245 8.03725 18.0079 9.51039 18.0008 11.022V17.003L20.0015 18.9826ZM13.0015 20.9992C13.0004 21.5299 12.7907 22.0388 12.4177 22.4162C12.0468 22.786 11.5457 22.9956 11.022 23C10.7597 23.0011 10.4999 22.95 10.2576 22.8498C10.0152 22.7496 9.79522 22.6022 9.61031 22.4162C9.23392 22.0406 9.02203 21.531 9.02123 20.9992" fill="#230066"/>
</g>
<defs>
<clipPath id="clip0_1344_5250">
<rect width="18.0015" height="21" fill="white" transform="translate(2 2)"/>
</clipPath>
</defs>
</svg>
