<svg width="23" height="23" viewBox="0 0 23 23" fill="none" xmlns="http://www.w3.org/2000/svg">
<ellipse cx="11.25" cy="11.6296" rx="9.375" ry="9.25926" fill="#230066"/>
<path d="M7.72007 16.9835C7.65096 16.9187 7.59576 16.8402 7.55792 16.7529C7.52007 16.6656 7.50039 16.5714 7.50009 16.4761V6.81382C7.49862 6.71952 7.51614 6.62589 7.5516 6.53866C7.58706 6.45142 7.6397 6.37239 7.70632 6.30638C7.76863 6.23656 7.84511 6.18116 7.93053 6.14397C8.01596 6.10678 8.10831 6.08867 8.20129 6.09089C8.38976 6.09024 8.57154 6.16142 8.71042 6.29025C8.8493 6.41908 8.93506 6.5961 8.95062 6.78602V11.7701L14.2372 6.31333C14.3567 6.17421 14.5259 6.08875 14.7076 6.07572C14.8894 6.06268 15.0688 6.12315 15.2065 6.24382C15.2686 6.29937 15.318 6.36795 15.3513 6.44478C15.3845 6.52162 15.4008 6.60485 15.399 6.6887C15.4057 6.8672 15.3441 7.04144 15.2271 7.17529L11.6455 10.783L15.7702 16.0173C15.8747 16.1471 15.9328 16.3087 15.9352 16.4761C15.9431 16.5651 15.9305 16.6548 15.8983 16.738C15.8661 16.8212 15.8152 16.8958 15.7496 16.9557C15.6851 17.0222 15.6081 17.075 15.523 17.1108C15.438 17.1466 15.3467 17.1648 15.2546 17.1643C15.1456 17.1682 15.0373 17.1441 14.9399 17.0942C14.8425 17.0444 14.7592 16.9704 14.6978 16.8793L10.7174 11.7492L8.96437 13.5566V16.4761C8.95697 16.6184 8.90954 16.7556 8.82766 16.8716C8.74578 16.9875 8.63285 17.0775 8.50215 17.1308C8.37146 17.1841 8.22843 17.1985 8.08988 17.1724C7.95134 17.1464 7.82304 17.0808 7.72007 16.9835Z" fill="white"/>
</svg>
