<svg width="24" height="24" viewBox="0 0 24 24" fill="none" xmlns="http://www.w3.org/2000/svg">
<g clip-path="url(#clip0_1349_5233)">
<path d="M21.8167 10.1333C21.4412 8.16397 20.4824 6.35294 19.0647 4.93529C17.6471 3.51765 15.836 2.55885 13.8667 2.18334C12.6342 1.93889 11.3658 1.93889 10.1333 2.18334C8.16396 2.55885 6.35293 3.51765 4.93529 4.93529C3.51765 6.35294 2.55885 8.16397 2.18333 10.1333C2.06295 10.7483 2.00156 11.3734 2 12C2.00708 14.3256 2.82224 16.5764 4.30594 18.3671C5.78965 20.1579 7.84964 21.3773 10.1333 21.8167C11.3658 22.0611 12.6342 22.0611 13.8667 21.8167C16.1504 21.3773 18.2104 20.1579 19.6941 18.3671C21.1778 16.5764 21.9929 14.3256 22 12C21.9984 11.3734 21.937 10.7483 21.8167 10.1333ZM17.05 10.3833H13.4444V12.3167L16.2222 17.1056L14.9667 17.8056L12.2889 13.2167H11.6944L9.01667 17.8056L7.76667 17.1056L10.5444 12.3167V10.3833H6.95V8.97223H17.05V10.3833ZM12 5.75556C12.278 5.75556 12.5497 5.83799 12.7809 5.99244C13.012 6.14688 13.1922 6.3664 13.2986 6.62323C13.4049 6.88006 13.4328 7.16267 13.3785 7.43533C13.3243 7.70798 13.1904 7.95842 12.9939 8.15499C12.7973 8.35156 12.5469 8.48543 12.2742 8.53966C12.0016 8.5939 11.7189 8.56606 11.4621 8.45968C11.2053 8.3533 10.9858 8.17314 10.8313 7.942C10.6769 7.71086 10.5944 7.43911 10.5944 7.16112C10.5944 6.78834 10.7425 6.43083 11.0061 6.16724C11.2697 5.90365 11.6272 5.75556 12 5.75556Z" fill="#230066"/>
</g>
<defs>
<clipPath id="clip0_1349_5233">
<rect width="20" height="20" fill="white" transform="translate(2 2)"/>
</clipPath>
</defs>
</svg>
