<svg width="24" height="24" viewBox="0 0 24 24" fill="none" xmlns="http://www.w3.org/2000/svg">
<g clip-path="url(#clip0_1349_5277)">
<path d="M19.075 4.92497C17.6751 3.52992 15.8932 2.58096 13.9543 2.19792C12.0155 1.81488 10.0066 2.01494 8.18135 2.77284C6.35611 3.53073 4.79638 4.81247 3.6991 6.45621C2.60182 8.09995 2.0162 10.032 2.0162 12.0083C2.0162 13.9846 2.60182 15.9167 3.6991 17.5604C4.79638 19.2041 6.35611 20.4859 8.18135 21.2438C10.0066 22.0017 12.0155 22.2017 13.9543 21.8187C15.8932 21.4356 17.6751 20.4867 19.075 19.0916C20.0073 18.1626 20.747 17.0587 21.2517 15.8432C21.7564 14.6276 22.0162 13.3244 22.0162 12.0083C22.0162 10.6922 21.7564 9.38897 21.2517 8.17345C20.747 6.95793 20.0073 5.85401 19.075 4.92497ZM16.7667 15.3333L15.3333 16.7666L12 13.4333L8.66665 16.7666L7.23332 15.3333L10.5667 12L7.23332 8.66664L8.66665 7.2333L12 10.5666L15.3333 7.2333L16.7667 8.66664L13.4333 12L16.7667 15.3333Z" fill="#cccccc"/>
</g>
<defs>
<clipPath id="clip0_1349_5277">
<rect width="20" height="20" fill="white" transform="translate(2 2)"/>
</clipPath>
</defs>
</svg>
