<svg width="24" height="24" viewBox="0 0 24 24" fill="none" xmlns="http://www.w3.org/2000/svg">
<g clip-path="url(#clip0_724_549)">
<path d="M22.5 13.7746V9.72542H19.2451C19.074 9.07886 18.8169 8.45818 18.4807 7.88L20.786 5.58069L17.9193 2.71403L15.62 5.01931C15.0408 4.68366 14.4205 4.42469 13.7746 4.24889V1H9.72542V4.24889C9.07951 4.42469 8.45918 4.68366 7.88 5.01931L5.58069 2.71403L2.72 5.58069L5.01931 7.88C4.6831 8.45818 4.42599 9.07886 4.25486 9.72542H1V13.7746H4.25486C4.42599 14.4211 4.6831 15.0418 5.01931 15.62L2.72 17.9193L5.58069 20.78L7.88 18.4807C8.45918 18.8163 9.07951 19.0753 9.72542 19.2511V22.5H13.7746V19.2511C14.4205 19.0753 15.0408 18.8163 15.62 18.4807L17.9193 20.78L20.786 17.9193L18.4807 15.62C18.8169 15.0418 19.074 14.4211 19.2451 13.7746H22.5ZM11.75 15.2199C11.0637 15.2199 10.3929 15.0164 9.82225 14.6351C9.25163 14.2538 8.80689 13.7119 8.54427 13.0779C8.28164 12.4438 8.21293 11.7462 8.34681 11.0731C8.4807 10.4 8.81117 9.78171 9.29644 9.29644C9.78171 8.81117 10.4 8.4807 11.0731 8.34681C11.7462 8.21293 12.4438 8.28164 13.0779 8.54427C13.7119 8.80689 14.2538 9.25163 14.6351 9.82225C15.0164 10.3929 15.2199 11.0637 15.2199 11.75C15.2199 12.6703 14.8543 13.5528 14.2036 14.2036C13.5528 14.8543 12.6703 15.2199 11.75 15.2199Z" fill="white"/>
<path d="M22.5 13.7746V9.72542H19.2451C19.074 9.07886 18.8169 8.45818 18.4807 7.88L20.786 5.58069L17.9193 2.71403L15.62 5.01931C15.0408 4.68366 14.4205 4.42469 13.7746 4.24889V1H9.72542V4.24889C9.07951 4.42469 8.45918 4.68366 7.88 5.01931L5.58069 2.71403L2.72 5.58069L5.01931 7.88C4.6831 8.45818 4.42599 9.07886 4.25486 9.72542H1V13.7746H4.25486C4.42599 14.4211 4.6831 15.0418 5.01931 15.62L2.72 17.9193L5.58069 20.78L7.88 18.4807C8.45918 18.8163 9.07951 19.0753 9.72542 19.2511V22.5H13.7746V19.2511C14.4205 19.0753 15.0408 18.8163 15.62 18.4807L17.9193 20.78L20.786 17.9193L18.4807 15.62C18.8169 15.0418 19.074 14.4211 19.2451 13.7746H22.5ZM11.75 15.2199C11.0637 15.2199 10.3929 15.0164 9.82225 14.6351C9.25163 14.2538 8.80689 13.7119 8.54427 13.0779C8.28164 12.4438 8.21293 11.7462 8.34681 11.0731C8.4807 10.4 8.81117 9.78171 9.29644 9.29644C9.78171 8.81117 10.4 8.4807 11.0731 8.34681C11.7462 8.21293 12.4438 8.28164 13.0779 8.54427C13.7119 8.80689 14.2538 9.25163 14.6351 9.82225C15.0164 10.3929 15.2199 11.0637 15.2199 11.75C15.2199 12.6703 14.8543 13.5528 14.2036 14.2036C13.5528 14.8543 12.6703 15.2199 11.75 15.2199Z" fill="#5D7C7E"/>
</g>
<defs>
<clipPath id="clip0_724_549">
<rect width="24" height="24" fill="white"/>
</clipPath>
</defs>
</svg>
