<svg width="24" height="24" viewBox="0 0 24 24" fill="none" xmlns="http://www.w3.org/2000/svg">
<g clip-path="url(#clip0_1349_5211)">
<path d="M13.4333 21.8833C13.6083 21.8833 13.7833 21.8417 13.95 21.8083C14.1167 21.775 14.2833 21.725 14.45 21.6833C14.6019 21.6523 14.7521 21.6133 14.9 21.5667L15.3833 21.4L15.825 21.2417L16.2667 21.0333C16.4179 20.9695 16.5653 20.8972 16.7083 20.8167L17.125 20.575L17.55 20.3167C17.7 20.2167 17.85 20.1 17.9917 19.9917C18.1333 19.8833 18.225 19.825 18.3333 19.7333C18.8487 19.318 19.318 18.8487 19.7333 18.3333C19.825 18.225 19.9 18.1167 19.9833 18C20.0667 17.8833 20.2167 17.7083 20.3167 17.55C20.4167 17.3917 20.4833 17.275 20.575 17.1333C20.6667 16.9917 20.7417 16.8583 20.8167 16.7083C20.8917 16.5583 20.9583 16.4167 21.0333 16.275L21.2417 15.825C21.3 15.6833 21.3417 15.5333 21.4 15.3917C21.4583 15.25 21.5167 15.0667 21.5667 14.9C21.6167 14.7333 21.6417 14.6083 21.6833 14.4667C21.725 14.325 21.775 14.125 21.8083 13.95C21.8417 13.775 21.8583 13.6167 21.8833 13.45C21.9083 13.2833 21.9333 13.1417 21.95 12.9833C21.95 12.6833 21.95 12.375 22 12.075V11.925C22 11.625 22 11.3167 21.95 11.0167C21.95 10.8583 21.9083 10.7 21.8833 10.55C21.8583 10.4 21.8417 10.2167 21.8083 10.05C21.775 9.88333 21.725 9.70833 21.6833 9.53333C21.6417 9.35833 21.6167 9.24167 21.5667 9.1C21.5167 8.95833 21.4583 8.775 21.4 8.60833C21.3417 8.44167 21.3 8.31667 21.2417 8.175L21.0333 7.725C20.9583 7.58333 20.9 7.43333 20.8167 7.29167C20.7333 7.15 20.6583 7.00833 20.575 6.86667C20.4917 6.725 20.4083 6.58333 20.3167 6.45C20.225 6.31667 20.1 6.15 19.9833 6C19.8667 5.85 19.825 5.775 19.7333 5.66667C18.8741 4.62047 17.8114 3.75963 16.6096 3.13633C15.4078 2.51303 14.0919 2.14024 12.7418 2.04057C11.3917 1.94089 10.0353 2.1164 8.75505 2.55646C7.47475 2.99652 6.29714 3.69196 5.29358 4.60064C4.29003 5.50932 3.48143 6.61231 2.9168 7.84276C2.35217 9.0732 2.04326 10.4055 2.00879 11.7589C1.97433 13.1122 2.21503 14.4585 2.71631 15.7161C3.21758 16.9737 3.969 18.1164 4.925 19.075H4.96667C5.19167 19.2917 5.41667 19.5 5.65834 19.7L6.025 19.975C6.16667 20.075 6.3 20.1833 6.45 20.2833L6.88334 20.55L7.28334 20.7833C7.43334 20.8667 7.59167 20.9333 7.74167 21.0083L8.175 21.2083L8.625 21.3667C8.78334 21.425 8.93334 21.4833 9.1 21.5333C9.24788 21.58 9.39808 21.6189 9.55 21.65C9.71667 21.6917 9.875 21.7417 10.0417 21.775L10.575 21.85L11.0167 21.9167C11.3428 21.9613 11.671 21.9891 12 22C12.3284 22.0002 12.6566 21.9835 12.9833 21.95L13.4333 21.8833ZM5.33334 12C5.33559 10.6831 5.7278 9.3964 6.4605 8.30217C7.19319 7.20794 8.23355 6.35521 9.45032 5.85157C10.6671 5.34793 12.0058 5.21592 13.2975 5.47222C14.5892 5.72851 15.776 6.36161 16.7083 7.29167L7.29167 16.7083C6.67004 16.0921 6.17686 15.3586 5.84071 14.5504C5.50455 13.7422 5.3321 12.8753 5.33334 12Z" fill="#230066"/>
</g>
<defs>
<clipPath id="clip0_1349_5211">
<rect width="20" height="20" fill="white" transform="translate(2 2)"/>
</clipPath>
</defs>
</svg>
