<svg width="36" height="36" viewBox="0 0 36 36" fill="none" xmlns="http://www.w3.org/2000/svg">
<g clip-path="url(#clip0_1220_2918)">
<path d="M19.605 17.8426C19.4325 17.8502 19.2612 17.8107 19.1093 17.7284C18.9575 17.6461 18.8309 17.5241 18.7431 17.3754C18.6553 17.2267 18.6095 17.057 18.6107 16.8843C18.612 16.7116 18.6601 16.5425 18.75 16.3951C18.8111 16.2773 18.8813 16.1644 18.96 16.0576L19.005 15.9826L22.6875 10.4551H17.535C17.3925 10.4551 17.3475 10.4551 17.2575 10.6276L13.995 16.3501L12.855 18.3526C12.8528 18.3675 12.8528 18.3827 12.855 18.3976H17.145C17.3478 18.3696 17.5544 18.399 17.7413 18.4826C17.9283 18.5661 18.088 18.7003 18.2025 18.8701V18.8701C18.293 19.0583 18.3297 19.2679 18.3086 19.4758C18.2874 19.6836 18.2092 19.8815 18.0825 20.0476L15.465 24.6301L22.215 17.8801H19.605V17.8426Z" fill="#A769FF"/>
<path d="M18 -0.0524902C14.4399 -0.0524902 10.9598 1.00319 7.99974 2.98106C5.03965 4.95892 2.73255 7.77014 1.37017 11.0592C0.00779152 14.3483 -0.348669 17.9675 0.345865 21.4591C1.0404 24.9508 2.75473 28.1581 5.27208 30.6754C7.78942 33.1928 10.9967 34.9071 14.4884 35.6016C17.98 36.2962 21.5992 35.9397 24.8883 34.5773C28.1774 33.215 30.9886 30.9079 32.9665 27.9478C34.9443 24.9877 36 21.5076 36 17.9475C36 13.1736 34.1036 8.59524 30.7279 5.21959C27.3523 1.84393 22.7739 -0.0524902 18 -0.0524902V-0.0524902ZM24.3225 18.75L20.52 22.545L18.1275 24.9375C17.025 26.04 15.93 27.1425 14.82 28.23C14.6241 28.4142 14.4077 28.5752 14.175 28.71L13.8975 28.8975L13.8 28.9575H13.05C12.7965 28.8567 12.5665 28.7048 12.3742 28.5113C12.1819 28.3177 12.0316 28.0867 11.9325 27.8325C11.8753 27.5607 11.8744 27.28 11.9298 27.0079C11.9853 26.7357 12.096 26.4778 12.255 26.25L15.6525 20.31H12.255C11.9665 20.3238 11.6799 20.2576 11.4267 20.1188C11.1734 19.98 10.9635 19.774 10.8199 19.5234C10.6764 19.2728 10.6049 18.9874 10.6133 18.6987C10.6217 18.4101 10.7097 18.1293 10.8675 17.8875C11.6625 16.4925 12.46 15.0975 13.26 13.7025L13.62 13.065L15.75 9.40501C15.8942 9.13192 16.11 8.9032 16.3742 8.74334C16.6384 8.58348 16.9412 8.49851 17.25 8.49751H23.175C23.484 8.47906 23.7918 8.54994 24.0616 8.70168C24.3314 8.85343 24.5518 9.07962 24.6965 9.35324C24.8412 9.62687 24.9041 9.93637 24.8777 10.2448C24.8513 10.5532 24.7367 10.8475 24.5475 11.0925L21.375 15.8475L21.33 15.915H23.2575C23.6567 15.8978 24.0473 16.0345 24.3488 16.2969C24.6502 16.5592 24.8394 16.9272 24.8775 17.325C24.9019 17.5893 24.8645 17.8557 24.7682 18.103C24.6718 18.3503 24.5193 18.5719 24.3225 18.75Z" fill="#A769FF"/>
</g>
<defs>
<clipPath id="clip0_1220_2918">
<rect width="36" height="36" fill="white"/>
</clipPath>
</defs>
</svg>
