<svg width="36" height="36" viewBox="0 0 36 36" fill="none" xmlns="http://www.w3.org/2000/svg">
<g clip-path="url(#clip0_1219_2900)">
<path d="M10.155 17.6101L15.99 24.3601C15.5925 22.8001 15.045 20.6101 14.2875 17.6101H10.155Z" fill="#230066"/>
<path d="M15.6375 11.5049H12.225L9.735 15.6674H14.325L15.6375 11.5049Z" fill="#230066"/>
<path d="M16.2975 17.6101C16.7775 19.5076 17.4525 22.1776 18 24.3151C18.54 22.1776 19.2225 19.5076 19.7025 17.6101H16.2975V17.6101Z" fill="#230066"/>
<path d="M19.6275 15.6674L18.315 11.5049H17.685L16.3725 15.6674H19.6275Z" fill="#230066"/>
<path d="M18 0C14.4399 0 10.9598 1.05568 7.99973 3.03355C5.03964 5.01141 2.73254 7.82263 1.37016 11.1117C0.00778389 14.4008 -0.348676 18.02 0.345858 21.5116C1.04039 25.0033 2.75473 28.2106 5.27207 30.7279C7.78942 33.2453 10.9967 34.9596 14.4884 35.6541C17.98 36.3487 21.5992 35.9922 24.8883 34.6298C28.1774 33.2675 30.9886 30.9603 32.9664 28.0003C34.9443 25.0402 36 21.5601 36 18C36 13.2261 34.1036 8.64773 30.7279 5.27208C27.3523 1.89642 22.7739 0 18 0V0ZM29.1825 16.7475L18.75 28.71C18.7006 28.7658 18.6453 28.8161 18.585 28.86V28.86C18.5172 28.904 18.4441 28.9393 18.3675 28.965H18.3H18.2175C18.1477 28.9723 18.0773 28.9723 18.0075 28.965C17.8669 28.963 17.7286 28.9297 17.6025 28.8675H17.55C17.4986 28.8474 17.4505 28.8196 17.4075 28.785C17.3485 28.7452 17.2955 28.6972 17.25 28.6425L6.82499 16.7475L11.115 9.5625H24.885L29.1825 16.7475Z" fill="#230066"/>
<path d="M20.3625 11.5049L21.675 15.6674H26.265L23.775 11.5049H20.3625Z" fill="#230066"/>
<path d="M20.01 24.3301L25.845 17.5801H21.75C20.955 20.6101 20.4 22.7701 20.01 24.3301Z" fill="#230066"/>
</g>
<defs>
<clipPath id="clip0_1219_2900">
<rect width="36" height="36" fill="white"/>
</clipPath>
</defs>
</svg>
