<svg width="36" height="36" viewBox="0 0 36 36" fill="none" xmlns="http://www.w3.org/2000/svg">
<g clip-path="url(#clip0_1219_2896)">
<path d="M18 0C14.4399 0 10.9598 1.05568 7.99974 3.03355C5.03966 5.01141 2.73255 7.82263 1.37018 11.1117C0.00779915 14.4008 -0.348661 18.02 0.345873 21.5116C1.04041 25.0033 2.75474 28.2106 5.27209 30.7279C7.78943 33.2453 10.9967 34.9596 14.4884 35.6541C17.98 36.3487 21.5992 35.9922 24.8883 34.6298C28.1774 33.2675 30.9886 30.9603 32.9665 28.0003C34.9443 25.0402 36 21.5601 36 18C36 13.2261 34.1036 8.64773 30.7279 5.27208C27.3523 1.89642 22.7739 0 18 0V0ZM26.43 23.4375C26.43 24.6525 22.7625 25.6875 18.105 25.6875C13.4475 25.6875 9.56251 24.6825 9.56251 23.4375C9.56251 23.37 9.56251 20.205 9.56251 18.705C10.8375 18.9525 16.6575 20.2575 18.12 20.265C19.4175 20.265 26.1975 18.765 26.37 18.765C26.4225 20.295 26.43 23.3925 26.43 23.4375ZM32.535 14.9925C32.0625 15.2325 31.185 15.6675 30.6675 15.8625C30.5175 15.9225 30.57 16.2375 30.5775 16.305C30.5775 18 30.5775 17.5575 30.5775 19.305C30.5855 19.503 30.6477 19.695 30.7575 19.86C31.3425 20.775 31.02 21.72 29.7825 22.11C28.485 21.8475 28.065 20.8425 28.605 19.8975C28.7073 19.7657 28.7767 19.6115 28.8075 19.4475C28.8075 17.6925 28.8075 18.0375 28.8075 16.1775L25.635 16.8075C23.385 17.2575 18.315 18.3825 18.0525 18.3825C17.4975 18.3825 3.65251 15.3825 3.66001 14.85C3.66751 14.3175 18.0825 11.5275 18.0825 11.5275C18.0825 11.5275 19.5825 11.7075 20.8125 11.9475C23.88 12.5475 30.825 14.31 32.4825 14.73C32.5213 14.723 32.5613 14.7318 32.5936 14.7543C32.626 14.7768 32.648 14.8112 32.655 14.85C32.662 14.8888 32.6532 14.9288 32.6307 14.9611C32.6082 14.9935 32.5738 15.0155 32.535 15.0225V14.9925Z" fill="#4180FF"/>
</g>
<defs>
<clipPath id="clip0_1219_2896">
<rect width="36" height="36" fill="white"/>
</clipPath>
</defs>
</svg>
