<svg xmlns="http://www.w3.org/2000/svg">
  <symbol id="account" viewBox="0 0 24 24">
    <path fill="currentColor" d="M11.2866 2.37041H11.283C10.0488 2.36628 8.82592 2.60289 7.68456 3.06666C6.54319 3.53043 5.50578 4.21224 4.63186 5.07296C3.75876 5.93228 3.06584 6.95325 2.59277 8.07741C2.1197 9.20157 1.87577 10.4068 1.87495 11.6242C1.87413 12.8416 2.11643 14.0472 2.58799 15.172C3.05954 16.2968 3.75109 17.3187 4.62304 18.1791C5.49804 19.0432 6.53765 19.7275 7.68185 20.1926C8.82606 20.6577 10.0522 20.8944 11.2895 20.8889H11.2903C12.517 20.89 13.7317 20.6501 14.8637 20.1832C15.9957 19.7163 17.0224 19.0318 17.8841 18.1694C19.1915 16.8763 20.0822 15.2299 20.4439 13.4377C20.8056 11.6455 20.6222 9.78765 19.9167 8.09823C19.2113 6.40881 18.0153 4.9634 16.4795 3.94411C14.9438 2.92483 13.1369 2.37726 11.2866 2.37041ZM15.5006 17.9486C15.2206 18.1101 14.8969 18.1826 14.5737 18.1561C14.2505 18.1297 13.9434 18.0057 13.694 17.8008C13.5616 17.7001 13.4499 17.5752 13.3652 17.4328C12.1816 15.4453 11.0026 13.4551 9.82811 11.4622C9.81242 11.4294 9.78673 11.4022 9.75464 11.3844C9.72254 11.3666 9.68563 11.3592 9.64905 11.3631C9.33007 11.3658 9.00999 11.3765 8.69218 11.357C7.98207 11.3019 7.31046 11.016 6.78236 10.5439C6.25427 10.0718 5.89947 9.44013 5.77343 8.74773C5.62978 7.94559 5.79643 7.11943 6.24038 6.43291C6.24819 6.41995 6.25866 6.40815 6.27663 6.38415C6.53225 6.76085 6.78163 7.12898 7.03139 7.49688C7.27619 7.85732 7.52098 8.21756 7.76577 8.57759C7.80092 8.64207 7.85008 8.69806 7.90972 8.74157C7.96936 8.78507 8.03801 8.81501 8.11074 8.82924C8.18347 8.84346 8.25849 8.84162 8.33042 8.82385C8.40235 8.80608 8.4694 8.77281 8.52678 8.72643C8.96038 8.44017 9.39348 8.15334 9.82608 7.86594C9.89009 7.83078 9.94555 7.78222 9.98857 7.72366C10.0316 7.66511 10.0611 7.59798 10.0751 7.52696C10.0891 7.45595 10.0872 7.38278 10.0696 7.31257C10.0519 7.24235 10.0189 7.1768 9.97296 7.12049C9.50139 6.426 9.02973 5.73137 8.55796 5.03662C8.53889 5.00861 8.52132 4.97983 8.49647 4.94133C8.54405 4.93122 8.58241 4.92072 8.62061 4.91509C9.20089 4.8288 9.794 4.89984 10.3366 5.12061C10.8792 5.34139 11.3508 5.7036 11.7011 6.16856C12.0515 6.63352 12.2673 7.18374 12.3256 7.76045C12.3839 8.33716 12.2825 8.91867 12.0322 9.44287C11.9279 9.67327 11.8231 9.9039 11.7147 10.1326C11.7024 10.1538 11.6976 10.1783 11.7009 10.2025C11.7043 10.2267 11.7157 10.249 11.7333 10.2661C12.8982 11.7167 14.0621 13.1681 15.2248 14.6203C15.5662 15.0462 15.9173 15.4652 16.2426 15.9028C16.3256 16.0352 16.3714 16.187 16.3754 16.3426C16.416 16.6668 16.3537 16.9955 16.197 17.2832C16.0403 17.5709 15.7969 17.8034 15.5006 17.9486Z" />
  </symbol>
</svg>
