<svg xmlns="http://www.w3.org/2000/svg">
  <symbol id="atlas" viewBox="0 0 24 24">
    <path fill="currentColor" d="m13.01,10.01h-2s0-.01,0-.01c-.55,0-1,.44-1,.99v2c-.02.55.43,1,.98,1.01h2s0,.01,0,.01c.55,0,1-.44,1-.99v-2c.02-.55-.43-1-.98-1.01Z"/>
    <path fill="currentColor" d="m19.97,3h-6.19c-.57,0-1.03.46-1.03,1.03v4.97h.27c1.1,0,1.99.91,1.99,2.02v.23s4.96,0,4.96,0c.57,0,1.03-.46,1.03-1.03v-6.19c0-.57-.46-1.03-1.03-1.03Z"/>
    <path fill="currentColor" d="m19.97,12.74h-4.97v.28c0,1.1-.91,1.99-2.02,1.99h-.23s0,4.96,0,4.96c0,.57.46,1.03,1.03,1.03h6.19c.57,0,1.03-.46,1.03-1.03v-6.19c0-.57-.46-1.03-1.03-1.03Z"/>
    <path fill="currentColor" d="m10.98,14.99c-1.1,0-1.99-.91-1.99-2.01v-.23s-4.96,0-4.96,0c-.57,0-1.03.46-1.03,1.03v6.19c0,.57.46,1.03,1.03,1.03h6.19c.57,0,1.03-.46,1.03-1.03v-4.97h-.27Z"/>
    <path fill="currentColor" d="m9.01,10.98c0-1.1.9-1.99,2-1.99h.32s0-4.96,0-4.96c0-.57-.46-1.03-1.03-1.03h-6.19c-.57,0-1.03.46-1.03,1.03v6.19c0,.57.46,1.03,1.03,1.03h4.89v-.27Z"/>
  </symbol>
</svg>
