<svg xmlns="http://www.w3.org/2000/svg">
  <symbol id="bell" viewBox="0 0 24 24">
    <path fill="currentColor" d="M20.1443 18.1739V19.1241H3V18.1739L4.90548 16.2684V10.5924C4.89864 9.15275 5.35905 7.74976 6.21757 6.59413C7.0761 5.43849 8.28639 4.59259 9.66667 4.18347V3.90548C9.66667 3.65525 9.71595 3.40747 9.81171 3.17629C9.90747 2.9451 10.0478 2.73504 10.2248 2.5581C10.4017 2.38116 10.6118 2.24081 10.843 2.14505C11.0741 2.04929 11.3219 2 11.5722 2C11.8224 2 12.0702 2.04929 12.3013 2.14505C12.5325 2.24081 12.7426 2.38116 12.9195 2.5581C13.0965 2.73504 13.2368 2.9451 13.3326 3.17629C13.4283 3.40747 13.4776 3.65525 13.4776 3.90548V4.18347C14.8579 4.59259 16.0682 5.43849 16.9267 6.59413C17.7853 7.74976 18.2457 9.15275 18.2388 10.5924V16.2886L20.1443 18.1739ZM13.4776 20.0945C13.4766 20.5999 13.2769 21.0846 12.9217 21.444C12.5684 21.7962 12.0912 21.9958 11.5924 22C11.3426 22.001 11.0951 21.9524 10.8644 21.8569C10.6336 21.7615 10.424 21.6211 10.2479 21.444C9.88944 21.0863 9.68765 20.6009 9.68688 20.0945" />
  </symbol>
</svg>
