<?xml version="1.0" encoding="UTF-8"?>
<svg id="Ebene_1" data-name="Ebene 1" xmlns="http://www.w3.org/2000/svg">
<symbol id="exaggeration" viewBox="0 0 24 24">
  <path fill="currentColor" d="M14.6348,6.8704c-.1399,.4042-.3575,.7539-.6529,1.0492s-.6451,.513-1.0492,.6529v10.4225h8.3939v1.8653H2.6734v-1.8653H11.0673V8.5725c-.4042-.1399-.7539-.3575-1.0492-.6529s-.5819-.6275-.6529-1.0492c-.0077-.046-.0263-.1899-.0263-.1899l-5.7329-.7427v-1.8653l5.7592,.7461c.1865-.5441,.5207-.8044,1.0026-1.1542s1.0259-.5246,1.6322-.5246,1.1503,.1749,1.6322,.5246,.8161,.9832,1.0026,1.5272l5.7592,.7461v1.8653l-5.8316-.7555m-2.5623-.1771c.2643,0,.4858-.0894,.6645-.2681,.1788-.1788,.2681-.4003,.2681-.6645s-.0894-.4858-.2681-.6645c-.1788-.1788-.4003-.2681-.6645-.2681s-.4858,.0894-.6645,.2681-.2681,.4003-.2681,.6645,.0894,.4858,.2681,.6645,.4003,.2681,.6645,.2681Z"/>
  <polygon fill="currentColor" points="18.8719 7.6545 20.0887 10.12 22.8095 10.5154 20.8407 12.4345 21.3055 15.1444 18.8719 13.865 16.4383 15.1444 16.903 12.4345 14.9342 10.5154 17.6551 10.12 18.8719 7.6545"/>
  <polygon fill="currentColor" points="4.9167 6.1257 5.5076 7.323 6.829 7.515 5.8728 8.4471 6.0985 9.7631 4.9167 9.1417 3.7348 9.7631 3.9605 8.4471 3.0044 7.515 4.3257 7.323 4.9167 6.1257"/>
</symbol>
</svg>