<svg xmlns="http://www.w3.org/2000/svg">
  <symbol id="info" viewBox="0 0 24 24">
    <path fill="currentColor" d="M23.8167 11.1334C23.4412 9.164 22.4824 7.35298 21.0647 5.93534C19.6471 4.5177 17.8361 3.5589 15.8667 3.18339C14.6343 2.93887 13.3658 2.93887 12.1334 3.18339C10.164 3.5589 8.35299 4.5177 6.93535 5.93534C5.51771 7.35298 4.55892 9.164 4.18341 11.1334C3.93886 12.3686 3.93886 13.6398 4.18341 14.875C4.56042 16.8429 5.51989 18.6521 6.93741 20.0681C8.35493 21.4841 10.1651 22.4417 12.1334 22.8167C13.3658 23.0612 14.6343 23.0612 15.8667 22.8167C18.1528 22.3823 20.2158 21.1643 21.7004 19.3724C23.185 17.5805 23.9982 15.327 24 13C23.9984 12.3734 23.937 11.7483 23.8167 11.1334ZM14.2084 6.33338C14.4873 6.33338 14.7599 6.4162 14.9917 6.57132C15.2234 6.72644 15.4039 6.94688 15.5103 7.20471C15.6166 7.46253 15.644 7.74612 15.589 8.01954C15.534 8.29295 15.399 8.54387 15.2012 8.7405C15.0034 8.93712 14.7517 9.07059 14.478 9.12398C14.2042 9.17738 13.9208 9.1483 13.6636 9.04043C13.4064 8.93255 13.1871 8.75075 13.0333 8.51806C12.8796 8.28537 12.7984 8.01226 12.8 7.73337C12.8022 7.36131 12.9516 7.00523 13.2155 6.74292C13.4793 6.48061 13.8363 6.33337 14.2084 6.33338ZM15.5167 19.3C15.5095 19.4256 15.4664 19.5466 15.3925 19.6485C15.3187 19.7504 15.2172 19.829 15.1 19.875C14.7939 20.0425 14.4489 20.1259 14.1 20.1167C13.7537 20.1272 13.411 20.0437 13.1084 19.875C12.9949 19.8257 12.8974 19.7458 12.8268 19.6443C12.7561 19.5427 12.7151 19.4235 12.7084 19.3V11.5667C12.7158 11.4412 12.7569 11.3201 12.8272 11.216C12.8976 11.1119 12.9947 11.0287 13.1084 10.975C13.411 10.8063 13.7537 10.7228 14.1 10.7334C14.4537 10.7186 14.8048 10.7992 15.1167 10.9667C15.2321 11.0202 15.3305 11.1046 15.4011 11.2104C15.4716 11.3163 15.5117 11.4396 15.5167 11.5667V19.3Z" />
  </symbol>
</svg>