<svg xmlns="http://www.w3.org/2000/svg">
  <symbol id="pen" viewBox="0 0 48 48">
    <path fill="currentColor" d="M19.7678 27.2159L21.6828 29.1393L27.8968 27.6301L44.8168 10.7101C43.0814 8.08029 40.8507 5.81341 38.2492 4.03589L21.2756 21.0089L19.7678 27.2159Z" />
    <path fill="currentColor" d="M30.7482 31.4125C30.4437 31.7168 30.0612 31.9313 29.6428 32.0325L16.5168 35.2221C16.1258 35.3171 15.717 35.3099 15.3296 35.2012C14.9421 35.0925 14.5892 34.8859 14.3048 34.6013C14.0203 34.3168 13.8139 33.9638 13.7053 33.5764C13.5967 33.1889 13.5896 32.78 13.6848 32.3891L16.8724 19.2621C16.9744 18.8439 17.1892 18.4616 17.4934 18.1571L33.9484 1.70289C28.7868 -0.461251 23.0351 -0.771904 17.6705 0.823699C12.3058 2.4193 7.65881 5.82277 4.51891 10.456C1.379 15.0892 -0.0602324 20.6666 0.44566 26.2406C0.951552 31.8146 3.37138 37.0417 7.29412 41.034C11.2169 45.0262 16.4006 47.5374 21.9649 48.1411C27.5292 48.7449 33.1309 47.4038 37.8186 44.3457C42.5063 41.2877 45.9908 36.7012 47.6804 31.3654C49.37 26.0295 49.1604 20.2733 47.0872 15.0745L30.7482 31.4125Z" />
  </symbol>
</svg>
