<?xml version="1.0" encoding="UTF-8"?>
<svg id="Ebene_1" data-name="Ebene 1" xmlns="http://www.w3.org/2000/svg">
<symbol id="successful-teamwork" viewBox="0 0 24 24">
  <g>
    <path fill="currentColor" d="M5.8209,16.5084c1.6356,0,2.9615-1.3259,2.9615-2.9615s-1.3259-2.9615-2.9615-2.9615-2.9615,1.3259-2.9615,2.9615,1.326,2.9615,2.9615,2.9615Z"/>
    <path fill="currentColor" d="M.5,21.5712v-.6613c0-1.8805,2.0602-3.4048,4.6015-3.4048h1.4387c.9611,0,1.8533,.218,2.5913,.5908,.6121,.3092,.8484,.5435,1.2183,1.0156,.31,.3956,1.5907,.5784,1.663,.7225,.1852,.3691,0,1.3203,0,1.7371"/>
  </g>
  <polygon fill="currentColor" points="12 2.9637 13.0951 5.1825 15.5437 5.5383 13.7718 7.2655 14.1901 9.7042 12 8.5528 9.8099 9.7042 10.2282 7.2655 8.4563 5.5383 10.9049 5.1825 12 2.9637"/>
  <g>
    <path fill="currentColor" d="M18.1791,16.5084c-1.6356,0-2.9615-1.3259-2.9615-2.9615s1.3259-2.9615,2.9615-2.9615,2.9615,1.3259,2.9615,2.9615-1.326,2.9615-2.9615,2.9615Z"/>
    <path fill="currentColor" d="M23.5,21.5712v-.6613c0-1.8805-2.0602-3.4048-4.6015-3.4048h-1.4387c-.9611,0-1.8533,.218-2.5913,.5908-.6121,.3092-.8484,.5435-1.2183,1.0156-.31,.3956-1.5907,.5784-1.663,.7225-.1852,.3691,0,1.3203,0,1.7371"/>
  </g>
</symbol>
</svg>