<svg xmlns="http://www.w3.org/2000/svg">
  <symbol id="team-roles" viewBox="0 0 24 24">
    <g>
      <path fill="currentColor" d="m12,7.57c1.41,0,2.55-1.14,2.55-2.55s-1.14-2.55-2.55-2.55-2.55,1.14-2.55,2.55,1.14,2.55,2.55,2.55Z"/>
      <path fill="currentColor" d="m12,17.48c1.5,0,2.72-1.22,2.72-2.72s-1.22-2.72-2.72-2.72-2.72,1.22-2.72,2.72,1.22,2.72,2.72,2.72Z"/>
      <path fill="currentColor" d="m16.89,21.52H7.11c0-1.73,1.89-3.13,4.23-3.13h1.32c2.33,0,4.23,1.4,4.23,3.13Z"/>
      <path fill="currentColor" d="m6.04,13.8c1.37,0,2.48-1.11,2.48-2.48s-1.11-2.48-2.48-2.48-2.48,1.11-2.48,2.48,1.11,2.48,2.48,2.48Z"/>
      <path fill="currentColor" d="m7.73,14.7s0-.08,0-.12c-.36-.09-.73-.14-1.11-.14h-1.18c-2.08,0-3.77,1.4-3.77,3.12h7.34c-.41-.36-.73-.8-.95-1.3-.22-.49-.34-1.03-.34-1.57Z"/>
      <path fill="currentColor" d="m20.44,11.32c0-1.37-1.11-2.48-2.48-2.48s-2.48,1.11-2.48,2.48,1.11,2.48,2.48,2.48,2.48-1.11,2.48-2.48Z"/>
      <path fill="currentColor" d="m15.93,16.27c-.22.49-.55.94-.95,1.3h7.34c0-1.72-1.69-3.12-3.77-3.12h-1.18c-.37,0-.75.05-1.11.14,0,.04,0,.08,0,.12,0,.54-.12,1.08-.34,1.57Z"/>
      <path fill="currentColor" d="m15.08,8.7c-.67-.39-2.3-.62-3.08-.62s-2.41.23-3.08.62c-.05.03-.17.08-.16.1.98.99.96,2.21.96,2.21,0,0,.64-.66,2.26-.66s2.3.66,2.3.66c0,0-.02-1.21.96-2.21.01-.01-.1-.07-.16-.1Z"/>
    </g>
  </symbol>
</svg>