<svg xmlns="http://www.w3.org/2000/svg">
  <symbol id="xing" viewBox="0 0 42 42">
    <path fill="#D3D800" d="M27.1346 8.27219C27.2318 7.98056 27.504 8.01944 27.7373 8H33.57C33.57 8.21386 33.395 8.34996 33.3366 8.52494L31.9368 11.0135L31.4702 11.8106C31.3229 11.9888 31.2108 12.1934 31.1397 12.4133C30.8498 12.8317 30.5961 13.274 30.3815 13.7354L30.187 14.0659L29.701 14.9408L28.9816 16.1851L28.8455 16.4184L28.2817 17.3905L26.7069 20.2291C26.5822 20.3769 26.4895 20.5491 26.4347 20.7346C26.2456 20.9721 26.0887 21.2336 25.9681 21.5122C25.7176 21.89 25.4966 22.2865 25.3071 22.6982C25.1321 22.8537 25.0932 23.0676 24.9766 23.2426C24.8164 23.4401 24.6915 23.6637 24.6072 23.9036C24.4905 24.1758 24.1211 24.3702 24.3155 24.7202C24.7238 25.4395 25.1515 26.12 25.5598 26.8394C25.9836 27.6923 26.4508 28.5229 26.9596 29.328C27.1774 29.7878 27.4309 30.2299 27.7179 30.65C27.9715 31.1765 28.2639 31.6834 28.5928 32.1665C28.6702 32.3978 28.7961 32.61 28.9622 32.7886C29.0223 33.0033 29.1285 33.2024 29.2733 33.3719C29.4638 33.7668 29.6781 34.1499 29.9148 34.519L30.2648 35.1217V35.1606H25.1321C24.7044 35.1606 24.2572 35.2772 23.8489 35.0439C23.7787 34.8194 23.6592 34.6135 23.499 34.4412C23.03 33.5128 22.5108 32.6107 21.9436 31.7388C21.7866 31.3432 21.5774 30.9705 21.3214 30.6306C21.3199 30.5732 21.3051 30.517 21.2781 30.4664C21.2511 30.4158 21.2127 30.3721 21.1659 30.3389C20.9968 29.9554 20.7883 29.5906 20.5438 29.2502C20.4092 28.9402 20.2396 28.6467 20.0383 28.3753C20.0126 28.2099 19.9301 28.0587 19.805 27.9476L18.9301 26.47C18.9105 26.3542 18.848 26.2501 18.7551 26.1783C18.6325 25.9048 18.4827 25.6442 18.3079 25.4007C18.2839 25.2486 18.2164 25.1068 18.1135 24.9924C18.0571 24.9363 18.0123 24.8697 17.9817 24.7963C17.9512 24.7229 17.9354 24.6442 17.9354 24.5646C17.9354 24.4851 17.9512 24.4064 17.9817 24.333C18.0123 24.2596 18.0571 24.1929 18.1135 24.1369L19.5133 21.5511C19.7185 21.2512 19.8943 20.9321 20.0383 20.5985C20.1581 20.4802 20.2452 20.3328 20.291 20.1707C20.547 19.8308 20.7562 19.4581 20.9132 19.0625C21.09 18.8483 21.2282 18.6049 21.3214 18.3432C21.4875 18.1645 21.6135 17.9524 21.6908 17.721L22.5463 16.2629L23.2657 15.0186V14.9019C23.7323 14.1437 24.1794 13.3855 24.5683 12.6078L26.2403 9.88588L26.3569 9.7109V9.53592C26.5687 9.26098 26.7451 8.96052 26.8819 8.64159C26.9586 8.61616 27.0249 8.56626 27.0706 8.49953C27.1162 8.4328 27.1387 8.35294 27.1346 8.27219Z" />
    <path fill="#00595E" d="M18.0942 20.2092L16.5 22.8145L16.2084 23.3005V23.4172V23.5921L15.8778 24.1171L15.2363 25.1864C15.0536 25.4107 14.9031 25.6593 14.7891 25.9252C14.617 26.1212 14.479 26.3446 14.3808 26.5862C14.3276 26.7354 14.2196 26.8586 14.0787 26.9308C13.9378 27.0031 13.7747 27.0189 13.6226 26.9751H8.23711C8.23711 26.9751 7.96492 26.9751 8.0038 26.8195C8.16079 26.6633 8.27466 26.469 8.33432 26.2557C8.52338 26.0432 8.67463 25.7999 8.78148 25.5364L10.4535 22.8145C10.6162 22.6011 10.7472 22.3654 10.8423 22.1146C11.0172 21.9354 11.1559 21.7241 11.2506 21.4924C11.4943 21.1479 11.7089 20.7837 11.8922 20.4036C12.0316 20.2416 12.1432 20.0577 12.2227 19.8593C12.3394 19.5482 12.8838 19.3538 12.4755 18.9066L12.0672 18.1678L11.7561 17.6623L10.2591 15.0571C10.0964 14.6865 9.89437 14.3345 9.65638 14.0072C9.60066 13.8279 9.50793 13.6623 9.38419 13.5212C9.38419 13.3267 9.15088 13.2295 9.20921 12.9962H14.7502C14.8077 12.9817 14.8674 12.9788 14.926 12.9876C14.9846 12.9965 15.0409 13.0168 15.0915 13.0476C15.1422 13.0784 15.1862 13.1189 15.2211 13.1668C15.2559 13.2147 15.2809 13.2691 15.2946 13.3267C15.373 13.4932 15.4709 13.6499 15.5862 13.7933L15.9167 14.396L16.4611 15.3293L17.7832 17.6623C18.0359 18.1095 18.2692 18.5372 18.5414 18.9649C18.5878 19.0411 18.6123 19.1285 18.6123 19.2177C18.6123 19.3068 18.5878 19.3943 18.5414 19.4704C18.3632 19.6978 18.2131 19.9459 18.0942 20.2092Z" />
    <path fill="currentColor" d="M27.1346 8.27219C27.2318 7.98056 27.504 8.01944 27.7373 8H33.57C33.57 8.21386 33.395 8.34996 33.3366 8.52494L31.9368 11.0135L31.4702 11.8106C31.3229 11.9888 31.2108 12.1934 31.1397 12.4133C30.8498 12.8317 30.5961 13.274 30.3815 13.7354L30.187 14.0659L29.701 14.9408L28.9816 16.1851L28.8455 16.4184L28.2817 17.3905L26.7069 20.2291C26.5822 20.3769 26.4895 20.5491 26.4347 20.7346C26.2456 20.9721 26.0887 21.2336 25.9681 21.5122C25.7176 21.89 25.4966 22.2865 25.3071 22.6982C25.1321 22.8537 25.0932 23.0676 24.9766 23.2426C24.8164 23.4401 24.6915 23.6637 24.6072 23.9036C24.4905 24.1758 24.1211 24.3702 24.3155 24.7202C24.7238 25.4395 25.1515 26.12 25.5598 26.8394C25.9836 27.6923 26.4508 28.5229 26.9596 29.328C27.1774 29.7878 27.4309 30.2299 27.7179 30.65C27.9715 31.1765 28.2639 31.6834 28.5928 32.1665C28.6702 32.3978 28.7961 32.61 28.9622 32.7886C29.0223 33.0033 29.1285 33.2024 29.2733 33.3719C29.4638 33.7668 29.6781 34.1499 29.9148 34.519L30.2648 35.1217V35.1606H25.1321C24.7044 35.1606 24.2572 35.2772 23.8489 35.0439C23.7787 34.8194 23.6592 34.6135 23.499 34.4412C23.03 33.5128 22.5108 32.6107 21.9436 31.7388C21.7866 31.3432 21.5774 30.9705 21.3214 30.6306C21.3199 30.5732 21.3051 30.517 21.2781 30.4664C21.2511 30.4158 21.2127 30.3721 21.1659 30.3389C20.9968 29.9554 20.7883 29.5906 20.5438 29.2502C20.4092 28.9402 20.2396 28.6467 20.0383 28.3753C20.0126 28.2099 19.9301 28.0587 19.805 27.9476L18.9301 26.47C18.9105 26.3542 18.848 26.2501 18.7551 26.1783C18.6325 25.9048 18.4827 25.6442 18.3079 25.4007C18.2839 25.2486 18.2164 25.1068 18.1135 24.9924C18.0571 24.9363 18.0123 24.8697 17.9817 24.7963C17.9512 24.7229 17.9354 24.6442 17.9354 24.5646C17.9354 24.4851 17.9512 24.4064 17.9817 24.333C18.0123 24.2596 18.0571 24.1929 18.1135 24.1369L19.5133 21.5511C19.7185 21.2512 19.8943 20.9321 20.0383 20.5985C20.1581 20.4802 20.2452 20.3328 20.291 20.1707C20.547 19.8308 20.7562 19.4581 20.9132 19.0625C21.09 18.8483 21.2282 18.6049 21.3214 18.3432C21.4875 18.1645 21.6135 17.9524 21.6908 17.721L22.5463 16.2629L23.2657 15.0186V14.9019C23.7323 14.1437 24.1794 13.3855 24.5683 12.6078L26.2403 9.88588L26.3569 9.7109V9.53592C26.5687 9.26098 26.7451 8.96052 26.8819 8.64159C26.9586 8.61616 27.0249 8.56626 27.0706 8.49953C27.1162 8.4328 27.1387 8.35294 27.1346 8.27219Z" />
    <path fill="currentColor" d="M18.0942 20.2092L16.5 22.8145L16.2084 23.3005V23.4172V23.5921L15.8778 24.1171L15.2363 25.1864C15.0536 25.4107 14.9031 25.6593 14.7891 25.9252C14.617 26.1212 14.479 26.3446 14.3808 26.5862C14.3276 26.7354 14.2196 26.8586 14.0787 26.9308C13.9378 27.0031 13.7747 27.0189 13.6226 26.9751H8.23711C8.23711 26.9751 7.96492 26.9751 8.0038 26.8195C8.16079 26.6633 8.27466 26.469 8.33432 26.2557C8.52338 26.0432 8.67463 25.7999 8.78148 25.5364L10.4535 22.8145C10.6162 22.6011 10.7472 22.3654 10.8423 22.1146C11.0172 21.9354 11.1559 21.7241 11.2506 21.4924C11.4943 21.1479 11.7089 20.7837 11.8922 20.4036C12.0316 20.2416 12.1432 20.0577 12.2227 19.8593C12.3394 19.5482 12.8838 19.3538 12.4755 18.9066L12.0672 18.1678L11.7561 17.6623L10.2591 15.0571C10.0964 14.6865 9.89437 14.3345 9.65638 14.0072C9.60066 13.8279 9.50793 13.6623 9.38419 13.5212C9.38419 13.3267 9.15088 13.2295 9.20921 12.9962H14.7502C14.8077 12.9817 14.8674 12.9788 14.926 12.9876C14.9846 12.9965 15.0409 13.0168 15.0915 13.0476C15.1422 13.0784 15.1862 13.1189 15.2211 13.1668C15.2559 13.2147 15.2809 13.2691 15.2946 13.3267C15.373 13.4932 15.4709 13.6499 15.5862 13.7933L15.9167 14.396L16.4611 15.3293L17.7832 17.6623C18.0359 18.1095 18.2692 18.5372 18.5414 18.9649C18.5878 19.0411 18.6123 19.1285 18.6123 19.2177C18.6123 19.3068 18.5878 19.3943 18.5414 19.4704C18.3632 19.6978 18.2131 19.9459 18.0942 20.2092Z" />
  </symbol>
</svg>
