<svg xmlns="http://www.w3.org/2000/svg">
  <symbol id="add2" viewBox="6 6 36 36">
    <path fill="currentColor" d="M24 6C20.4399 6 16.9598 7.05568 13.9997 9.03355C11.0397 11.0114 8.73255 13.8226 7.37018 17.1117C6.0078 20.4008 5.65134 24.02 6.34587 27.5116C7.04041 31.0033 8.75474 34.2106 11.2721 36.7279C13.7894 39.2453 16.9967 40.9596 20.4884 41.6541C23.98 42.3487 27.5992 41.9922 30.8883 40.6298C34.1774 39.2674 36.9886 36.9603 38.9665 34.0003C40.9443 31.0402 42 27.5601 42 24C42 19.2261 40.1036 14.6477 36.7279 11.2721C33.3523 7.89642 28.7739 6 24 6ZM26.49 26.115V36H21.51V26.115H11.835V21.135H21.51V11.61H26.49V21.135H36.225V26.115H26.49Z" />
  </symbol>
</svg>