<svg viewBox="0 0 24 24" xmlns="http://www.w3.org/2000/svg">
  <symbol id="adjustment" viewBox="0 0 24 24">
    <g clip-path="url(#clip0_1407_5383)">
      <path fill="currentColor" d="M14.25 4.17C14.0588 3.82046 13.7782 3.52796 13.4369 3.32239C13.0956 3.11683 12.7058 3.00557 12.3075 3C11.6967 3.01768 11.1177 3.27581 10.6963 3.71825C10.2749 4.16069 10.0453 4.75163 10.0575 5.3625C10.0453 5.97337 10.2749 6.56431 10.6963 7.00675C11.1177 7.44919 11.6967 7.70732 12.3075 7.725C12.7058 7.71943 13.0956 7.60817 13.4369 7.40261C13.7782 7.19704 14.0588 6.90454 14.25 6.555H21V4.17H14.25Z" />
      <path fill="currentColor" d="M9.0975 4.16992H3V6.56242H9.0975V4.16992Z" />
      <path fill="currentColor" d="M20.9625 10.8076H18.72V13.2001H20.9625V10.8076Z" />
      <path fill="currentColor" d="M15.3225 14.3625C15.9491 14.3625 16.55 14.1135 16.993 13.6705C17.4361 13.2274 17.685 12.6265 17.685 12C17.685 11.3734 17.4361 10.7725 16.993 10.3294C16.55 9.88636 15.9491 9.63745 15.3225 9.63745C14.9241 9.64302 14.5344 9.75428 14.1931 9.95984C13.8518 10.1654 13.5712 10.4579 13.38 10.8075H3V13.1925H13.38C13.5712 13.542 13.8518 13.8345 14.1931 14.0401C14.5344 14.2456 14.9241 14.3569 15.3225 14.3625Z" />
      <path fill="currentColor" d="M7.56745 17.4451H3.07495V19.8376H7.56745V17.4451Z" />
      <path fill="currentColor" d="M10.7175 16.2749C10.0909 16.2749 9.49 16.5238 9.04694 16.9669C8.60389 17.4099 8.35498 18.0108 8.35498 18.6374C8.35498 19.264 8.60389 19.8649 9.04694 20.3079C9.49 20.751 10.0909 20.9999 10.7175 20.9999C11.1159 20.9943 11.5056 20.8831 11.8469 20.6775C12.1882 20.4719 12.4688 20.1794 12.66 19.8299H20.91V17.4449H12.66C12.4688 17.0954 12.1882 16.8029 11.8469 16.5973C11.5056 16.3917 11.1159 16.2805 10.7175 16.2749Z" />
    </g>
  </symbol>
  <defs>
    <clipPath id="clip0_1407_5383">
      <rect width="18" height="18" fill="white" transform="translate(3 3)" />
    </clipPath>
  </defs>
</svg>
