<svg xmlns="http://www.w3.org/2000/svg">
  <symbol id="attention" viewBox="0 0 20 20">
    <path d="M19.8133 8.07688C19.3194 5.55647 17.8746 3.32273 15.7785 1.8386C13.6824 0.354479 11.0955 -0.266233 8.55418 0.105108C6.01281 0.47645 3.71175 1.81137 2.1279 3.83321C0.544039 5.85505 -0.201171 8.40879 0.0467087 10.9652C0.294589 13.5215 1.51655 15.8845 3.45935 17.5644C5.40215 19.2443 7.91681 20.1122 10.4822 19.9884C13.0475 19.8645 15.4669 18.7584 17.2389 16.8992C19.0108 15.04 19.9995 12.5703 20 10.002C19.9985 9.35582 19.936 8.71127 19.8133 8.07688ZM9.75101 16.7266C9.49767 16.7266 9.25003 16.6514 9.03939 16.5107C8.82875 16.3699 8.66458 16.1699 8.56763 15.9359C8.47069 15.7018 8.44532 15.4443 8.49474 15.1958C8.54417 14.9473 8.66616 14.7191 8.84529 14.54C9.02443 14.3608 9.25266 14.2388 9.50112 14.1894C9.74959 14.14 10.0071 14.1654 10.2412 14.2623C10.4752 14.3593 10.6753 14.5234 10.816 14.7341C10.9568 14.9447 11.0319 15.1923 11.0319 15.4457C11.0319 15.7854 10.8969 16.1112 10.6567 16.3514C10.4165 16.5916 10.0907 16.7266 9.75101 16.7266ZM11.0339 12.3246H8.4721V2.79727H11.0339V12.3246Z" fill="#D6002B" />
  </symbol>
</svg>
