<?xml version="1.0" encoding="UTF-8"?>
<svg id="Ebene_1" data-name="Ebene 1" xmlns="http://www.w3.org/2000/svg">
<symbol id="competence-development" viewBox="0 0 24 24">
  <path fill="currentColor" d="M4.6476,14.9738c.9469,0,1.7146-.7676,1.7146-1.7146s-.7676-1.7146-1.7146-1.7146-1.7146,.7676-1.7146,1.7146,.7677,1.7146,1.7146,1.7146Z"/>
  <path fill="currentColor" d="M7.7282,17.5222H1.567c0-1.0887,1.1928-1.9712,2.6641-1.9712h.8329c1.4714,0,2.6642,.8825,2.6642,1.9712Z"/>
  <path fill="currentColor" d="M7.7282,22.5222H1.567v-3.9712H7.7282v3.9712Z"/>
  <path fill="currentColor" d="M15.0806,13.5981v8.9712h-6.1612V13.5981"/>
  <path fill="currentColor" d="M22.433,8.6585v13.9712h-6.1612V8.6585"/>
  <polygon fill="currentColor" points="12 5.6559 13.0043 7.6909 15.25 8.0172 13.625 9.6012 14.0086 11.8378 12 10.7818 9.9914 11.8378 10.375 9.6012 8.75 8.0172 10.9957 7.6909 12 5.6559"/>
  <polygon fill="currentColor" points="19.3524 .6559 20.3567 2.6909 22.6024 3.0172 20.9774 4.6012 21.361 6.8378 19.3524 5.7818 17.3438 6.8378 17.7274 4.6012 16.1024 3.0172 18.3481 2.6909 19.3524 .6559"/>
  <polygon fill="currentColor" points="8.2829 1.2887 6.1803 1.3747 7.0653 2.7723 1.567 6.0713 2.0807 6.9287 7.6003 3.617 8.4318 4.9304 9.4088 3.0665 10.3854 1.2027 8.2829 1.2887"/>
</symbol>
</svg>