<svg xmlns="http://www.w3.org/2000/svg">
  <symbol id="delete2" viewBox="2 2 20 20">
    <path fill="currentColor" d="M19.075 4.92497C17.6751 3.52992 15.8932 2.58096 13.9544 2.19792C12.0155 1.81488 10.0066 2.01494 8.18138 2.77284C6.35615 3.53073 4.79641 4.81247 3.69913 6.45621C2.60185 8.09995 2.01624 10.032 2.01624 12.0083C2.01624 13.9846 2.60185 15.9167 3.69913 17.5604C4.79641 19.2041 6.35615 20.4859 8.18138 21.2438C10.0066 22.0017 12.0155 22.2017 13.9544 21.8187C15.8932 21.4356 17.6751 20.4867 19.075 19.0916C20.0073 18.1626 20.747 17.0587 21.2517 15.8432C21.7564 14.6276 22.0162 13.3244 22.0162 12.0083C22.0162 10.6922 21.7564 9.38897 21.2517 8.17345C20.747 6.95793 20.0073 5.85401 19.075 4.92497ZM16.7667 15.3333L15.3334 16.7666L12 13.4333L8.66668 16.7666L7.23335 15.3333L10.5667 12L7.23335 8.66664L8.66668 7.2333L12 10.5666L15.3334 7.2333L16.7667 8.66664L13.4334 12L16.7667 15.3333Z" />
  </symbol>
</svg>
