<svg xmlns="http://www.w3.org/2000/svg">
  <symbol id="help" viewBox="0 0 24 24">
    <path fill="currentColor" d="M12.0012 2C9.68751 1.99973 7.44532 2.80174 5.65671 4.26938C3.8681 5.73701 2.64373 7.77945 2.19225 10.0486C1.74077 12.3178 2.09012 14.6734 3.18075 16.7139C4.27139 18.7544 6.03583 20.3535 8.1734 21.2389C9.53944 21.8047 11.014 22.0605 12.4908 21.988C13.9676 21.9154 15.4099 21.5162 16.7139 20.8193C18.0179 20.1223 19.1511 19.1448 20.0319 17.9572C20.9127 16.7696 21.5192 15.4015 21.8078 13.9514C22.0963 12.5012 22.0596 11.0051 21.7005 9.57082C21.3413 8.13653 20.6685 6.79973 19.7306 5.6567C18.7927 4.51366 17.613 3.59284 16.2765 2.96053C14.9399 2.32822 13.4798 2.00017 12.0012 2ZM12.9456 18.7H10.9456V16.8389H12.9456V18.7ZM15.0734 11.5222L14.1734 12.4389C13.4512 13.1556 13.1623 14.2889 13.0012 15.5056H11.0012V15.0111C10.9983 13.8789 11.416 12.786 12.1734 11.9444L13.4123 10.6889C13.5993 10.5058 13.7477 10.287 13.8488 10.0457C13.95 9.80426 14.0018 9.54506 14.0012 9.28333C14.0012 8.7529 13.7905 8.24419 13.4154 7.86912C13.0403 7.49405 12.5316 7.28333 12.0012 7.28333C11.4707 7.28333 10.962 7.49405 10.587 7.86912C10.2119 8.24419 10.0012 8.7529 10.0012 9.28333H8.00118C8.00118 8.22247 8.42261 7.20505 9.17275 6.45491C9.9229 5.70476 10.9403 5.28333 12.0012 5.28333C13.062 5.28333 14.0795 5.70476 14.8296 6.45491C15.5797 7.20505 16.0012 8.22247 16.0012 9.28333C16.001 10.1231 15.6673 10.9285 15.0734 11.5222Z" />
  </symbol>
</svg>
