<svg xmlns="http://www.w3.org/2000/svg">
  <symbol id="instagram" viewBox="0 0 43 42">
    <g clip-path="url(#clip0_1747_25253)">
      <path d="M34.9999 17.1254L34.978 16.8481C34.9628 16.6687 34.9476 16.4893 34.9408 16.3104C34.9333 15.025 34.6876 13.7521 34.2163 12.5563C33.7805 11.5079 33.0976 10.5804 32.2259 9.85301C31.3542 9.12558 30.3195 8.61972 29.2101 8.37856C28.1915 8.15413 27.1515 8.04097 26.1085 8.04106C26.068 8.03861 26.0279 8.0322 25.9886 8.02194L17.1366 8L16.8553 8.02137C16.6703 8.03712 16.4846 8.05231 16.299 8.06019C14.9859 8.06631 13.6859 8.3229 12.469 8.81619C11.4422 9.25685 10.5351 9.93554 9.82251 10.7962C9.10996 11.6568 8.61247 12.6747 8.37115 13.7656C8.13378 14.7929 8.02047 15.845 8.03365 16.8993L8.02802 17.8511C8.0089 20.2625 7.98977 22.7606 8.00608 25.2159C7.96241 26.5496 8.08199 27.8836 8.36215 29.1882C8.65707 30.6093 9.38503 31.904 10.4459 32.8944C11.5068 33.8848 12.8485 34.5221 14.2864 34.7188C15.3017 34.8876 16.3295 34.9702 17.3588 34.9657C18.9073 34.9887 20.4801 35 22.0624 35C23.0918 35 24.123 34.9953 25.1561 34.9859H25.2596C26.5764 35.0267 27.8933 34.9075 29.1814 34.631C32.2673 33.8435 34.1314 31.841 34.7231 28.6848C34.8193 28.1079 34.8787 27.5255 34.9009 26.9411C34.9172 26.6716 34.9324 26.4016 34.9571 26.1322C34.9618 26.0854 34.9695 26.039 34.9802 25.9932L34.9999 25.8577V17.1254ZM10.9097 21.23L10.9316 19.9677C10.9508 18.7201 10.971 17.4303 11.0188 16.1647C11.0382 15.5394 11.1288 14.9183 11.2888 14.3135C11.4736 13.4898 11.9126 12.7449 12.5438 12.1843C13.1749 11.6237 13.9664 11.2756 14.8061 11.1894C15.8753 11.0471 16.9524 10.9737 18.031 10.9694L18.193 10.9649C19.5756 10.9295 21.0471 10.9228 22.8274 10.9447C24.4772 10.9649 25.9661 10.9891 27.4787 11.0814C28.11 11.0885 28.7329 11.2273 29.3075 11.4888C29.8822 11.7503 30.3959 12.1288 30.816 12.6001C31.4211 13.307 31.7885 14.1862 31.8662 15.1134C31.9568 16.0038 32.0102 16.9859 32.035 18.2037C32.0659 19.7517 32.0726 21.311 32.053 22.8376C32.0333 24.4886 32.0091 25.9781 31.9168 27.4878C31.9096 28.1145 31.7727 28.7328 31.5148 29.304C31.2569 29.8751 30.8836 30.3867 30.4183 30.8066C29.7091 31.4219 28.8227 31.7961 27.8871 31.8753C26.9916 31.9676 26.0381 32.0193 24.7961 32.0441C23.2532 32.075 21.6928 32.0812 20.1606 32.0621C18.5091 32.0418 17.019 32.0182 15.5087 31.9259C14.8776 31.919 14.2549 31.7806 13.6803 31.5196C13.1057 31.2586 12.5918 30.8807 12.1714 30.41C11.5663 29.7029 11.199 28.8235 11.1212 27.8962C11.0143 26.8454 10.9766 25.7896 10.9525 24.8024C10.9328 24.038 10.9373 23.273 10.9423 22.508C10.9423 22.1705 10.9457 21.8392 10.9457 21.5045V21.23H10.9097Z" fill="url(#paint0_linear_1747_25253)" />
      <path d="M21.4793 28.5739H21.4871C23.3522 28.5605 25.1364 27.811 26.4516 26.4885C27.7667 25.166 28.5062 23.3775 28.5092 21.5125C28.5122 19.6474 27.7783 17.8566 26.4674 16.5299C25.1565 15.2032 23.3746 14.448 21.5096 14.4287H21.5001C19.6351 14.4424 17.8509 15.1921 16.536 16.5148C15.2211 17.8374 14.4818 19.6259 14.479 21.491C14.4763 23.3561 15.2103 25.1467 16.5213 26.4732C17.8324 27.7998 19.6143 28.5548 21.4793 28.5739ZM21.5063 17.3801C22.0473 17.379 22.5831 17.4858 23.0823 17.6942C23.5816 17.9026 24.0342 18.2085 24.4138 18.594C24.7978 18.9789 25.1019 19.4358 25.3089 19.9385C25.5159 20.4413 25.6215 20.9799 25.6198 21.5235C25.6207 22.0637 25.5136 22.5986 25.3048 23.0969C25.0961 23.5951 24.7899 24.0466 24.4043 24.4249C24.0182 24.8084 23.5604 25.1121 23.057 25.3186C22.5536 25.5251 22.0144 25.6305 21.4703 25.6287C20.9294 25.6296 20.3939 25.5219 19.8954 25.312C19.3969 25.1022 18.9457 24.7944 18.5683 24.4069C17.7941 23.6167 17.3635 22.5527 17.3702 21.4465C17.3812 20.3591 17.8226 19.3203 18.5978 18.5577C19.373 17.795 20.4188 17.3706 21.5063 17.3773V17.3801Z" fill="url(#paint1_linear_1747_25253)" />
      <path d="M28.5401 16.3159H28.5514C28.9216 16.3163 29.2837 16.207 29.5919 16.0017C29.9 15.7964 30.1404 15.5044 30.2827 15.1626C30.425 14.8208 30.4628 14.4445 30.3913 14.0812C30.3199 13.7179 30.1423 13.3839 29.8811 13.1215C29.5232 12.7807 29.0476 12.5913 28.5534 12.5925C28.0592 12.5938 27.5846 12.7857 27.2284 13.1282C27.0543 13.3018 26.9165 13.5082 26.8231 13.7356C26.7296 13.9629 26.6823 14.2065 26.6839 14.4523C26.688 14.9441 26.8846 15.4146 27.2316 15.763C27.5787 16.1114 28.0484 16.3099 28.5401 16.3159Z" fill="url(#paint2_linear_1747_25253)" />
      <path fill="currentColor" d="M34.9999 17.1254L34.978 16.8481C34.9628 16.6687 34.9476 16.4893 34.9408 16.3104C34.9333 15.025 34.6876 13.7521 34.2163 12.5563C33.7805 11.5079 33.0976 10.5804 32.2259 9.85301C31.3542 9.12558 30.3195 8.61972 29.2101 8.37856C28.1915 8.15413 27.1515 8.04097 26.1085 8.04106C26.068 8.03861 26.0279 8.0322 25.9886 8.02194L17.1366 8L16.8553 8.02137C16.6703 8.03712 16.4846 8.05231 16.299 8.06019C14.9859 8.06631 13.6859 8.3229 12.469 8.81619C11.4422 9.25685 10.5351 9.93554 9.82251 10.7962C9.10996 11.6568 8.61247 12.6747 8.37115 13.7656C8.13378 14.7929 8.02047 15.845 8.03365 16.8993L8.02802 17.8511C8.0089 20.2625 7.98977 22.7606 8.00608 25.2159C7.96241 26.5496 8.08199 27.8836 8.36215 29.1882C8.65707 30.6093 9.38503 31.904 10.4459 32.8944C11.5068 33.8848 12.8485 34.5221 14.2864 34.7188C15.3017 34.8876 16.3295 34.9702 17.3588 34.9657C18.9073 34.9888 20.4801 35 22.0624 35C23.0918 35 24.123 34.9953 25.1561 34.9859H25.2596C26.5764 35.0267 27.8933 34.9075 29.1814 34.631C32.2673 33.8435 34.1314 31.841 34.7231 28.6848C34.8193 28.1079 34.8787 27.5255 34.9009 26.9411C34.9172 26.6716 34.9324 26.4016 34.9571 26.1322C34.9618 26.0854 34.9695 26.039 34.9802 25.9932L34.9999 25.8577V17.1254ZM10.9097 21.23L10.9316 19.9677C10.9508 18.7201 10.971 17.4303 11.0188 16.1647C11.0382 15.5394 11.1288 14.9183 11.2888 14.3135C11.4736 13.4898 11.9126 12.7449 12.5438 12.1843C13.1749 11.6237 13.9664 11.2756 14.8061 11.1894C15.8753 11.0471 16.9524 10.9737 18.031 10.9694L18.193 10.9649C19.5756 10.9295 21.0471 10.9227 22.8274 10.9447C24.4772 10.9649 25.9661 10.9891 27.4787 11.0814C28.11 11.0885 28.7329 11.2273 29.3075 11.4888C29.8822 11.7503 30.3959 12.1288 30.816 12.6001C31.4211 13.307 31.7885 14.1862 31.8662 15.1134C31.9568 16.0038 32.0102 16.9859 32.035 18.2037C32.0659 19.7517 32.0726 21.311 32.053 22.8376C32.0333 24.4886 32.0091 25.9781 31.9168 27.4878C31.9096 28.1145 31.7727 28.7328 31.5148 29.304C31.2569 29.8751 30.8836 30.3867 30.4183 30.8066C29.7091 31.4219 28.8227 31.7961 27.8871 31.8753C26.9916 31.9676 26.0381 32.0193 24.7961 32.0441C23.2532 32.075 21.6928 32.0812 20.1606 32.0621C18.5091 32.0418 17.019 32.0182 15.5087 31.9259C14.8776 31.919 14.2549 31.7806 13.6803 31.5196C13.1057 31.2586 12.5918 30.8807 12.1714 30.41C11.5663 29.7029 11.199 28.8235 11.1212 27.8962C11.0143 26.8454 10.9766 25.7896 10.9525 24.8024C10.9328 24.038 10.9373 23.273 10.9423 22.508C10.9423 22.1705 10.9457 21.8392 10.9457 21.5045V21.23H10.9097Z" />
      <path fill="currentColor" d="M21.4791 28.574H21.487C23.3521 28.5606 25.1363 27.8111 26.4514 26.4886C27.7666 25.1661 28.5061 23.3777 28.5091 21.5126C28.512 19.6475 27.7782 17.8567 26.4673 16.53C25.1564 15.2034 23.3745 14.4482 21.5095 14.4288H21.5C19.6349 14.4425 17.8508 15.1922 16.5359 16.5149C15.2209 17.8376 14.4816 19.626 14.4789 21.4911C14.4761 23.3562 15.2102 25.1468 16.5212 26.4734C17.8323 27.7999 19.6142 28.5549 21.4791 28.574ZM21.5061 17.3803C22.0471 17.3791 22.583 17.4859 23.0822 17.6943C23.5814 17.9028 24.0341 18.2087 24.4137 18.5941C24.7976 18.979 25.1018 19.4359 25.3088 19.9387C25.5157 20.4414 25.6214 20.98 25.6197 21.5236C25.6206 22.0638 25.5135 22.5988 25.3047 23.097C25.096 23.5952 24.7898 24.0468 24.4041 24.425C24.0181 24.8085 23.5603 25.1122 23.0569 25.3187C22.5534 25.5253 22.0143 25.6306 21.4701 25.6288C20.9293 25.6297 20.3938 25.522 19.8953 25.3122C19.3968 25.1023 18.9455 24.7945 18.5682 24.407C17.794 23.6169 17.3633 22.5528 17.3701 21.4466C17.3811 20.3592 17.8225 19.3204 18.5977 18.5578C19.3729 17.7951 20.4187 17.3707 21.5061 17.3775V17.3803Z" />
      <path fill="currentColor" d="M28.5402 16.316H28.5515C28.9218 16.3164 29.2838 16.2071 29.592 16.0018C29.9002 15.7966 30.1406 15.5046 30.2829 15.1627C30.4251 14.8209 30.4629 14.4446 30.3915 14.0813C30.32 13.718 30.1424 13.384 29.8812 13.1216C29.5233 12.7809 29.0477 12.5914 28.5535 12.5927C28.0593 12.5939 27.5847 12.7858 27.2285 13.1283C27.0544 13.3019 26.9167 13.5083 26.8232 13.7357C26.7297 13.963 26.6824 14.2067 26.684 14.4525C26.6881 14.9442 26.8847 15.4147 27.2318 15.7631C27.5788 16.1115 28.0485 16.31 28.5402 16.316Z" />

    </g>
  </symbol>
  <defs>
    <linearGradient id="paint0_linear_1747_25253" x1="11.5" y1="32.5" x2="32.5" y2="10.5" gradientUnits="userSpaceOnUse">
      <stop stop-color="#FEC81E" />
      <stop offset="0.25" stop-color="#F95A0E" />
      <stop offset="0.505208" stop-color="#E6002D" />
      <stop offset="0.770833" stop-color="#D2006A" />
      <stop offset="1" stop-color="#BE00A5" />
    </linearGradient>
    <linearGradient id="paint1_linear_1747_25253" x1="17.5001" y1="26.5" x2="26.5001" y2="17" gradientUnits="userSpaceOnUse">
      <stop stop-color="#F95A0E" />
      <stop offset="0.505208" stop-color="#E6002D" />
      <stop offset="1" stop-color="#D2006A" />
    </linearGradient>
    <linearGradient id="paint2_linear_1747_25253" x1="26.9999" y1="16" x2="30.4999" y2="13" gradientUnits="userSpaceOnUse">
      <stop stop-color="#D2006A" />
      <stop offset="1" stop-color="#BE00A5" />
    </linearGradient>
    <clipPath id="clip0_1747_25253">
      <rect width="27" height="27" fill="white" transform="translate(8 8)" />
    </clipPath>
  </defs>

</svg>
