<svg xmlns="http://www.w3.org/2000/svg">
  <symbol id="language" viewBox="0 0 24 24">
    <path fill="currentColor" d="M12 2C10.0222 2 8.08879 2.58649 6.4443 3.6853C4.79981 4.78412 3.51809 6.3459 2.76121 8.17316C2.00433 10.0004 1.8063 12.0111 2.19215 13.9509C2.578 15.8907 3.53041 17.6725 4.92894 19.0711C6.32746 20.4696 8.10929 21.422 10.0491 21.8078C11.9889 22.1937 13.9996 21.9957 15.8268 21.2388C17.6541 20.4819 19.2159 19.2002 20.3147 17.5557C21.4135 15.9112 22 13.9778 22 12C22 9.34783 20.9464 6.8043 19.0711 4.92893C17.1957 3.05357 14.6522 2 12 2ZM12.0045 4.59342C12.7879 5.70752 13.3775 6.9459 13.7485 8.25633H10.261C10.6498 6.9527 11.2378 5.71716 12.0045 4.59342ZM9.60334 4.95392C9.04847 6.00349 8.61672 7.11366 8.31667 8.26233H5.65042C6.55602 6.7442 7.94944 5.57798 9.60334 4.95392ZM4.85167 13.6377C4.54617 12.5323 4.54925 11.3643 4.86059 10.2604C4.88559 10.1703 4.909 10.1154 5.02217 10.1158C5.99509 10.1207 6.96792 10.1187 7.94084 10.1194C7.97262 10.1221 8.00418 10.1271 8.03525 10.1343C7.91988 11.3511 7.92398 12.5762 8.0475 13.7922C7.96775 13.7964 7.91484 13.8019 7.86275 13.8019C6.93175 13.8023 6.00117 13.7997 5.07059 13.8052C5.04505 13.8098 5.01883 13.8091 4.99358 13.8031C4.96834 13.797 4.94465 13.7857 4.92403 13.77C4.90341 13.7542 4.88632 13.7343 4.87386 13.7115C4.8614 13.6887 4.85384 13.6636 4.85167 13.6377ZM5.64334 15.6622H8.31667C8.61706 16.8113 9.05055 17.9214 9.60834 18.97C7.93879 18.3681 6.53472 17.1969 5.64334 15.6622ZM12.0048 19.3272C11.2203 18.2124 10.6304 16.9726 10.2604 15.6606H13.7504C13.3603 16.9652 12.7714 18.2019 12.0048 19.3272ZM14.1205 13.7917H9.89725C9.64166 12.5837 9.64209 11.3356 9.8985 10.1277H14.2018C14.4677 11.338 14.4398 12.5944 14.1205 13.7917ZM18.3738 8.27242C17.6101 8.27242 16.8963 8.27308 16.1822 8.27183C16.0271 8.27183 15.8306 8.31925 15.7277 8.24358C15.6277 8.16992 15.6203 7.96708 15.5783 7.81917C15.3055 6.91164 14.9511 6.03064 14.5196 5.18692C14.4878 5.123 14.4573 5.05833 14.4077 4.95433C16.0799 5.55764 17.4848 6.73294 18.3738 8.27242ZM14.4179 18.9641C14.4558 18.88 14.4778 18.8241 14.5054 18.771C15.0097 17.8295 15.3964 16.8297 15.6569 15.7939C15.6785 15.7074 15.6986 15.6447 15.816 15.6456C16.6327 15.6512 17.4489 15.6487 18.2656 15.6494C18.2988 15.6529 18.3319 15.6584 18.3644 15.6661C17.4759 17.1938 16.0792 18.361 14.4179 18.9641ZM16.0651 13.7926C16.1796 12.5744 16.1773 11.3481 16.0583 10.1304H19.2058C19.5644 11.3247 19.5649 12.598 19.2073 13.7926H16.0651Z"/>
  </symbol>
</svg>
