<svg xmlns="http://www.w3.org/2000/svg">
  <symbol id="linkedin" viewBox="0 0 42 42">
    <path fill="currentColor" d="M32.9906 31.4785H28.0174V30.7955C28.0174 28.1062 28.0174 25.4168 28.0174 22.7488C28.049 22.3867 28.049 22.0225 28.0174 21.6603C27.9868 21.1042 27.752 20.579 27.3582 20.1851C26.9644 19.7913 26.4392 19.5566 25.8831 19.5259C25.2359 19.3982 24.5644 19.5272 24.0107 19.8857C23.457 20.2442 23.0645 20.8041 22.9163 21.4469C22.7386 22.2171 22.6456 23.0043 22.6388 23.7947C22.6388 26.1425 22.6388 28.469 22.6388 30.7955V31.5212H17.5376V15.5346H22.2759V17.669C22.6386 17.0496 23.1253 16.5118 23.7056 16.0894C24.286 15.667 24.9474 15.3691 25.6483 15.2145C26.9819 14.9031 28.3777 14.9922 29.6609 15.4706C30.5274 15.7983 31.2805 16.3696 31.8297 17.1156C32.3788 17.8617 32.7004 18.7506 32.7558 19.6753C32.8984 20.5793 32.9769 21.4923 32.9906 22.4073C33.0119 25.4168 32.9906 28.405 32.9906 31.4785Z" />
    <path fill="currentColor" d="M14.3358 31.4783H9.42676V15.5344H14.3358V31.4783Z" />
    <path fill="currentColor" d="M11.8601 13.7202C13.4397 13.7202 14.7202 12.4397 14.7202 10.8601C14.7202 9.2805 13.4397 8 11.8601 8C10.2805 8 9 9.2805 9 10.8601C9 12.4397 10.2805 13.7202 11.8601 13.7202Z" />
  </symbol>
</svg>
