<svg xmlns="http://www.w3.org/2000/svg">
  <symbol id="twitter" viewBox="0 0 42 42">
    <path fill="currentColor" d="M30.6475 13.3033C30.1081 12.7432 29.4413 12.3218 28.704 12.0748C27.9666 11.8277 27.1805 11.7625 26.4126 11.8846C27.3447 11.8259 28.2409 11.5027 28.9959 10.9529C28.9959 10.7199 28.9959 10.4658 28.7418 10.4658C28.0649 10.486 27.4004 10.6521 26.7937 10.9529C27.5137 10.4658 27.7678 10.2329 27.7678 10C26.8533 10.1351 26.0029 10.5492 25.3326 11.1858C25.5656 10.7199 25.8197 10.4658 25.5656 10.2329C25.1368 10.4229 24.7909 10.7613 24.5915 11.1858C23.9642 11.6915 23.4639 12.3368 23.1305 13.0704C22.2245 14.5542 21.5128 16.1483 21.013 17.8135H20.7801C20.2443 17.0116 19.5163 16.3564 18.6626 15.9078C17.4262 15.1777 16.1298 14.5544 14.7876 14.0444C13.3079 13.2644 11.7546 12.6331 10.1503 12.1598C10.1335 12.9894 10.3537 13.8066 10.785 14.5155C11.2163 15.2244 11.8409 15.7955 12.5854 16.1619C12.0089 16.1213 11.4306 16.208 10.8914 16.416C10.8914 17.8347 12.0984 18.9993 14.3005 19.4863C13.545 19.5259 12.8138 19.7672 12.1831 20.1851C12.5654 20.8629 13.1449 21.4082 13.8447 21.7487C14.5444 22.0891 15.3312 22.2084 16.1004 22.0908C15.8722 22.2742 15.6235 22.4306 15.3593 22.5567C15.1987 22.7034 15.0894 22.8978 15.0475 23.1112C15.0055 23.3247 15.0332 23.5459 15.1264 23.7425C15.6134 24.4413 16.1004 24.6742 17.2439 24.6742C16.4302 25.52 15.437 26.1723 14.3375 26.5828C13.238 26.9933 12.0603 27.1515 10.8914 27.0458C9.06731 26.9178 7.34161 26.1707 6 24.9283C7.80107 27.3641 10.2523 29.2428 13.0724 30.349C16.3212 31.3708 19.7917 31.4588 23.0881 30.6031C26.3219 29.6276 29.2045 27.7377 31.3887 25.1612C32.3345 23.9058 32.9989 22.4614 33.3367 20.9262C34.0155 20.9894 34.6996 20.8941 35.3353 20.6479C35.971 20.4017 36.5408 20.0113 37 19.5075C35.8651 19.7624 34.6805 19.6814 33.5908 19.2746C35.2848 19.0205 36.513 18.5546 36.7459 17.6018C36.1691 17.8429 35.5501 17.967 34.9249 17.967C34.2997 17.967 33.6807 17.8429 33.1038 17.6018C32.8661 15.9247 31.9852 14.4059 30.6475 13.3668V13.3033Z" />
  </symbol>
</svg>
