<svg xmlns="http://www.w3.org/2000/svg">
  <symbol id="upload" viewBox="0 0 48 48">
    <path fill="currentColor" d="M24.5 0C19.7533 0 15.1131 1.40758 11.1663 4.04473C7.21954 6.68188 4.14341 10.4302 2.3269 14.8156C0.510399 19.201 0.0351188 24.0266 0.961164 28.6822C1.88721 33.3377 4.17299 37.6141 7.52945 40.9706C10.8859 44.327 15.1623 46.6128 19.8178 47.5388C24.4734 48.4649 29.299 47.9896 33.6844 46.1731C38.0698 44.3566 41.8181 41.2805 44.4553 37.3337C47.0924 33.3869 48.5 28.7468 48.5 24C48.5 17.6348 45.9714 11.5303 41.4706 7.02944C36.9697 2.52856 30.8652 0 24.5 0ZM37.7032 32.9712C37.4922 33.0049 37.2827 33.0302 37.0747 33.0471C35.669 33.1624 31.3609 33.2449 26.6782 33.2688L26.669 23.5034L30.7218 27.4609L33.839 23.9272L25.929 16.6157C25.4631 16.1656 24.8405 15.914 24.1927 15.914C23.5449 15.914 22.9224 16.1656 22.4564 16.6157L14.5464 23.9277L17.6636 27.4614L21.7256 23.6961L21.7349 33.2717C17.2583 33.2525 13.2549 33.1707 12.0034 33.0025C11.9692 32.9978 11.9346 32.9925 11.8999 32.9878C9.96002 32.697 8.1977 31.6949 6.95592 30.1764C5.71414 28.658 5.08173 26.7318 5.18177 24.7728C5.28181 22.8138 6.10714 20.9621 7.49715 19.578C8.88715 18.1939 10.7424 17.3765 12.7018 17.2849C12.4778 16.2107 12.48 15.1017 12.7083 14.0284C12.9366 12.9552 13.386 11.9412 14.0279 11.0512C14.6697 10.1612 15.4899 9.41473 16.4362 8.85924C17.3824 8.30376 18.4341 7.95149 19.524 7.8249C21.2809 7.62049 23.0555 8.01155 24.5637 8.93545C26.0719 9.85935 27.2264 11.2626 27.8424 12.9206C28.5909 12.4857 29.4402 12.2542 30.3058 12.2489C31.6363 12.249 32.9123 12.7775 33.8531 13.7184C34.7939 14.6592 35.3224 15.9353 35.3224 17.2658C35.3224 17.2948 35.3141 17.3219 35.3136 17.3507C37.3705 17.0653 39.457 17.6012 41.1219 18.8422C42.7868 20.0833 43.8962 21.9299 44.2102 23.9826C44.5241 26.0353 44.0175 28.1291 42.7997 29.8111C41.5819 31.4931 39.7509 32.6282 37.7028 32.9707L37.7032 32.9712Z" />
  </symbol>
</svg>
