<svg xmlns="http://www.w3.org/2000/svg">
  <symbol id="youtube" viewBox="0 0 42 42">
    <path fill="currentColor" d="M20.9446 32.0855C17.9709 32.0855 14.9798 32.0855 12.0061 32.0855C8.73681 31.9811 7.31083 30.7812 7.13693 27.5815C6.95436 23.9551 6.95436 20.3218 7.13693 16.6954C7.13147 16.2055 7.22656 15.7197 7.41632 15.268C7.60607 14.8163 7.88646 14.4083 8.24015 14.0693C8.59383 13.7303 9.0133 13.4674 9.47261 13.297C9.93193 13.1265 10.4213 13.0521 10.9106 13.0783C17.6057 12.9739 24.2834 12.9739 30.9786 13.0783C31.5036 13.0466 32.0293 13.1281 32.5201 13.3174C33.0108 13.5066 33.4551 13.7992 33.8229 14.1752C34.1907 14.5512 34.4733 15.0019 34.6517 15.4968C34.83 15.9916 34.8999 16.519 34.8565 17.0432C35.0478 20.681 35.0478 24.3263 34.8565 27.9641C34.7 30.7639 33.2393 31.9638 30.2134 32.0681C27.1876 32.1724 23.9878 32.0681 20.875 32.0681L20.9446 32.0855ZM25.5877 22.5036L18.3708 18.0866V26.9033L25.5877 22.5036Z" />
  </symbol>
</svg>
