<svg width="24" height="24" viewBox="0 0 24 24" fill="none" xmlns="http://www.w3.org/2000/svg">
<path d="M11 2C9.02219 2 7.08879 2.58649 5.4443 3.6853C3.79981 4.78412 2.51809 6.3459 1.76121 8.17316C1.00433 10.0004 0.8063 12.0111 1.19215 13.9509C1.578 15.8907 2.53041 17.6725 3.92894 19.0711C5.32746 20.4696 7.10929 21.422 9.0491 21.8078C10.9889 22.1937 12.9996 21.9957 14.8268 21.2388C16.6541 20.4819 18.2159 19.2002 19.3147 17.5557C20.4135 15.9112 21 13.9778 21 12C21 9.34783 19.9464 6.80429 18.0711 4.92893C16.1957 3.05357 13.6522 2 11 2V2ZM12.115 19.6816H9.86667V14.2417H12.115V19.6816ZM16.3671 16.0472C15.5402 17.1471 14.3933 17.9644 13.0838 18.387V16.1131C14.0101 15.6446 14.7516 14.8778 15.1888 13.9363C15.626 12.9948 15.7333 11.9334 15.4935 10.9235C15.2536 9.9135 14.6806 9.01376 13.8668 8.36933C13.053 7.72491 12.0458 7.37337 11.0078 7.37142C10.7903 7.37148 10.5731 7.38671 10.3578 7.417C9.3769 7.54595 8.4635 7.98688 7.75242 8.67468C7.04134 9.36248 6.57027 10.2607 6.40875 11.2367C6.24722 12.2127 6.40382 13.2148 6.85541 14.095C7.307 14.9753 8.02965 15.6869 8.91667 16.125V18.3833C7.56466 17.9405 6.38823 17.0797 5.55702 15.9251C4.7258 14.7705 4.28276 13.3818 4.29178 11.9591C4.30079 10.5365 4.7614 9.15343 5.60719 8.00946C6.45297 6.86549 7.64022 6.01969 8.99773 5.59403C10.3552 5.16838 11.8129 5.18486 13.1604 5.6411C14.5079 6.09733 15.6758 6.96976 16.4955 8.13256C17.3152 9.29536 17.7444 10.6884 17.7212 12.1109C17.6981 13.5334 17.2238 14.9118 16.3667 16.0473L16.3671 16.0472Z" fill="#ffffff"/>
</svg>
