<svg width="24" height="24" viewBox="0 0 24 24" fill="none" xmlns="http://www.w3.org/2000/svg">
<path d="M21.142 21.1472L16 16" stroke="#B4B4B4" stroke-width="2" stroke-linecap="square" stroke-linejoin="round"/>
<path d="M16.141 14.587L16.0694 14.6586C17.4026 12.9695 18.0396 10.8351 17.85 8.69214C17.6603 6.54919 16.6585 4.55961 15.0493 3.13042C13.4401 1.70122 11.3453 0.940417 9.19328 1.00365C7.04128 1.06688 4.99478 1.94936 3.47243 3.47057C1.95007 4.99178 1.06693 7.03674 1.00365 9.18712C0.940373 11.3375 1.70175 13.4308 3.13202 15.0388C4.56229 16.6467 6.55336 17.6478 8.69793 17.8373C10.8425 18.0268 12.9785 17.3903 14.6689 16.058L14.5807 16.1462L21.4562 23L23 21.4408L16.141 14.587ZM9.46953 15.6889C8.24258 15.6889 7.04313 15.3256 6.02266 14.6449C5.00218 13.9642 4.20644 12.9966 3.7359 11.8643C3.26536 10.732 3.14114 9.4858 3.3789 8.28301C3.61667 7.08022 4.20577 5.97479 5.07182 5.10632C5.93787 4.23785 7.04203 3.64527 8.24488 3.40342C9.44773 3.16156 10.6953 3.28128 11.8301 3.74744C12.9649 4.21361 13.9361 5.00532 14.6209 6.02261C15.3057 7.0399 15.6735 8.23714 15.6779 9.46317C15.6764 11.108 15.0219 12.6851 13.8579 13.8482C12.6939 15.0113 11.1156 15.6654 9.46953 15.6669V15.6889Z" fill="#B4B4B4"/>
</svg>
