<svg width="36" height="36" viewBox="0 0 36 36" fill="none" xmlns="http://www.w3.org/2000/svg">
<g clip-path="url(#clip0_1219_2910)">
<g clip-path="url(#clip1_1219_2910)">
<path d="M18 8.49756C17.4527 8.5167 16.9232 8.69645 16.4774 9.01442C16.0316 9.33239 15.6892 9.77451 15.4929 10.2857C15.2966 10.7969 15.2551 11.3546 15.3735 11.8892C15.4919 12.4238 15.765 12.9118 16.1588 13.2923C16.5526 13.6728 17.0497 13.929 17.5881 14.029C18.1264 14.1289 18.6823 14.0683 19.1865 13.8546C19.6906 13.6408 20.1207 13.2835 20.4232 12.827C20.7257 12.3705 20.8872 11.8351 20.8875 11.2876C20.8816 10.9146 20.8022 10.5465 20.6539 10.2043C20.5055 9.86205 20.291 9.55248 20.0228 9.2933C19.7545 9.03411 19.4378 8.83041 19.0907 8.69387C18.7436 8.55732 18.3729 8.49061 18 8.49756V8.49756Z" fill="#5D7C7E"/>
<path d="M18 0C14.4399 0 10.9598 1.05568 7.99973 3.03355C5.03964 5.01141 2.73254 7.82263 1.37016 11.1117C0.00778389 14.4008 -0.348676 18.02 0.345858 21.5116C1.04039 25.0033 2.75473 28.2106 5.27207 30.7279C7.78942 33.2453 10.9967 34.9596 14.4884 35.6541C17.98 36.3487 21.5992 35.9922 24.8883 34.6298C28.1774 33.2675 30.9886 30.9603 32.9664 28.0003C34.9443 25.0402 36 21.5601 36 18C36 13.2261 34.1036 8.64773 30.7279 5.27208C27.3523 1.89642 22.7739 0 18 0V0ZM19.7325 16.2075V29.8875H17.25V28.5675H14.1975V26.16H17.25V25.1475H14.9025V22.7475H17.25V16.41C15.9979 16.2497 14.8456 15.6436 14.004 14.7029C13.1624 13.7621 12.6879 12.5496 12.6675 11.2875C12.6675 9.86329 13.2333 8.49741 14.2403 7.49034C15.2474 6.48327 16.6133 5.9175 18.0375 5.9175C19.4617 5.9175 20.8276 6.48327 21.8347 7.49034C22.8417 8.49741 23.4075 9.86329 23.4075 11.2875C23.3889 12.3896 23.024 13.4578 22.3644 14.3409C21.7048 15.2239 20.784 15.877 19.7325 16.2075V16.2075Z" fill="#5D7C7E"/>
</g>
</g>
<defs>
<clipPath id="clip0_1219_2910">
<rect width="36" height="36" fill="white"/>
</clipPath>
<clipPath id="clip1_1219_2910">
<rect width="36" height="36" fill="white"/>
</clipPath>
</defs>
</svg>
